
Video
ID                                       : 1
Format                                   : AVC
Format/Info                              : Advanced Video Codec
Format profile                           : High@L4.1
Format settings, CABAC                   : Yes
Format settings, ReFrames                : 3 frames
Codec ID                                 : V_MPEG4/ISO/AVC
Duration                                 : 2h 10mn
Bit rate mode                            : Variable
Bit rate                                 : 666 Kbps
Maximum bit rate                         : 40.0 Mbps
Width                                    : 688 pixels
Height                                   : 272 pixels
Display aspect ratio                     : 2.529
Frame rate                               : 23.976 fps
Color space                              : YUV
Chroma subsampling                       : 4:2:0
Bit depth                                : 8 bits
Scan type                                : Progressive
Bits/(Pixel*Frame)                       : 0.148
Stream size                              : 609 MiB (87%)
Writing library                          : x264 core 114 r1913 5fd3dce
Language                                 : English
Default                                  : Yes
Forced                                   : No
Color primaries                          : BT.709-5, BT.1361, IEC 61966-2-4, SMPTE RP177
Transfer characteristics                 : BT.709-5, BT.1361

Audio
ID                                       : 2
Format                                   : MPEG Audio
Format version                           : Version 1
Format profile                           : Layer 3
Mode                                     : Joint stereo
Mode extension                           : Intensity Stereo + MS Stereo
Codec ID                                 : A_MPEG/L3
Codec ID/Hint                            : MP3
Duration                                 : 2h 10mn
Bit rate mode                            : Constant
Bit rate                                 : 80.0 Kbps
Channel(s)                               : 2 channels
Sampling rate                            : 32.0 KHz
Compression mode                         : Lossy
Stream size                              : 74.7 MiB (11%)
Default                                  : Yes
Forced                                   : No
 
http://img202.imageshack.us/img202/2853/39595687.png 
http://img546.imageshack.us/img546/7139/99956171.png 
http://img205.imageshack.us/img205/1323/82351630.png

